<svg xmlns="http://www.w3.org/2000/svg" width="32" height="32" viewBox="0 0 32 32">
  <defs>
    <linearGradient id="listGradient" x1="0%" y1="0%" x2="100%" y2="100%">
      <stop offset="0%" stop-color="#EFF6FF" /> <stop offset="100%" stop-color="#DBEAFE" /> </linearGradient>
    
    <linearGradient id="leafGradient" x1="0%" y1="0%" x2="0%" y2="100%">
      <stop offset="0%" stop-color="#4ADE80" /> <stop offset="100%" stop-color="#22C55E" /> </linearGradient>

    <linearGradient id="checkGradient" x1="0%" y1="0%" x2="0%" y2="100%">
      <stop offset="0%" stop-color="#3B82F6" /> <stop offset="100%" stop-color="#1D4ED8" /> </linearGradient>
  </defs>

  <rect x="2" y="4" width="28" height="24" rx="4" ry="4" fill="url(#listGradient)" stroke="#BFDBFE" stroke-width="1.5" />
  
  <line x1="8" y1="11" x2="24" y2="11" stroke="#93C5FD" stroke-width="2" stroke-linecap="round" />
  <line x1="8" y1="17" x2="18" y2="17" stroke="#93C5FD" stroke-width="2" stroke-linecap="round" />
  <line x1="8" y1="23" x2="14" y2="23" stroke="#93C5FD" stroke-width="2" stroke-linecap="round" />

  <path d="M22 13C22 13 22.5 9 25.5 8.5C28 8 29.5 10 29.5 10C29.5 10 26.5 10.5 25 13.5C24.5 14.5 22 13 22 13Z" fill="url(#leafGradient)" />
  <path d="M25 13.5L24 16" stroke="#22C55E" stroke-width="1.5" stroke-linecap="round" />

  <path d="M12 18.5L16.5 23L26 12" fill="none" stroke="url(#checkGradient)" stroke-width="4" stroke-linecap="round" stroke-linejoin="round" />
  <path d="M12.5 18.5L16.5 22.5L25.5 12.5" fill="none" stroke="#FFFFFF" stroke-width="1.2" stroke-linecap="round" stroke-linejoin="round" opacity="0.4" />

</svg>
